<mxfile host="app.diagrams.net" modified="2024-04-10T10:05:45.604Z" agent="Mozilla/5.0 (Macintosh; Intel Mac OS X 10_15_7) AppleWebKit/537.36 (KHTML, like Gecko) Chrome/123.0.0.0 Safari/537.36" etag="kSbFwW-Tsdkagu-Wzhev" version="24.0.1" type="device">
  <diagram name="Page-1" id="CJYWuD-pApp3X6JHcklv">
    <mxGraphModel dx="1911" dy="1102" grid="1" gridSize="10" guides="1" tooltips="1" connect="1" arrows="1" fold="1" page="1" pageScale="1" pageWidth="827" pageHeight="1169" background="#ffffff" math="0" shadow="0">
      <root>
        <mxCell id="0" />
        <mxCell id="1" parent="0" />
        <mxCell id="fWN6U2PsKUXUR3X5_iIi-8" value="" style="rounded=1;whiteSpace=wrap;html=1;fillColor=#f0f6ff;strokeColor=#f0f6ff;verticalAlign=bottom;" parent="1" vertex="1">
          <mxGeometry x="155" y="35.5" width="1310" height="984.5" as="geometry" />
        </mxCell>
        <mxCell id="fWN6U2PsKUXUR3X5_iIi-105" value="" style="edgeStyle=orthogonalEdgeStyle;html=1;verticalAlign=bottom;endArrow=none;endSize=8;strokeColor=#666666;rounded=1;endFill=0;dashed=1;entryX=0.5;entryY=0;entryDx=0;entryDy=0;" parent="1" target="fWN6U2PsKUXUR3X5_iIi-17" edge="1">
          <mxGeometry relative="1" as="geometry">
            <mxPoint x="810" y="900.5714285714286" as="targetPoint" />
            <mxPoint x="810.0000000000005" y="480" as="sourcePoint" />
            <Array as="points">
              <mxPoint x="810" y="610" />
              <mxPoint x="810" y="610" />
            </Array>
          </mxGeometry>
        </mxCell>
        <mxCell id="fWN6U2PsKUXUR3X5_iIi-28" value="" style="edgeStyle=orthogonalEdgeStyle;html=1;verticalAlign=bottom;endArrow=none;endSize=8;strokeColor=#666666;rounded=1;entryX=0.5;entryY=0;entryDx=0;entryDy=0;endFill=0;dashed=1;" parent="1" source="fWN6U2PsKUXUR3X5_iIi-27" target="fWN6U2PsKUXUR3X5_iIi-29" edge="1">
          <mxGeometry relative="1" as="geometry">
            <mxPoint x="1370" y="250" as="targetPoint" />
          </mxGeometry>
        </mxCell>
        <mxCell id="fWN6U2PsKUXUR3X5_iIi-5" value="" style="shape=actor;whiteSpace=wrap;html=1;fillColor=#0a6ec7;strokeColor=#0a6ec7;" parent="1" vertex="1">
          <mxGeometry x="80" y="335" width="30" height="45" as="geometry" />
        </mxCell>
        <mxCell id="fWN6U2PsKUXUR3X5_iIi-9" value="GitHub Actions" style="rounded=1;whiteSpace=wrap;html=1;arcSize=40;fontColor=#000000;fillColor=#FFFFFF;strokeColor=#666666;" parent="1" vertex="1">
          <mxGeometry x="190" y="150" width="120" height="40" as="geometry" />
        </mxCell>
        <mxCell id="fWN6U2PsKUXUR3X5_iIi-13" value="GitHub Actions" style="rounded=1;whiteSpace=wrap;html=1;arcSize=40;fontColor=#000000;fillColor=#FFFFFF;strokeColor=#666666;" parent="1" vertex="1">
          <mxGeometry x="190" y="860" width="120" height="40" as="geometry" />
        </mxCell>
        <mxCell id="fWN6U2PsKUXUR3X5_iIi-15" value="&lt;div&gt;Bump sec-scanners-config, KEB chart&lt;br&gt;&lt;/div&gt;" style="rounded=1;whiteSpace=wrap;html=1;arcSize=40;fontColor=#000000;fillColor=#FFFFFF;strokeColor=#666666;" parent="1" vertex="1">
          <mxGeometry x="750" y="150" width="120" height="40" as="geometry" />
        </mxCell>
        <mxCell id="fWN6U2PsKUXUR3X5_iIi-17" value="Bump sec-scanners-config, KEB chart" style="rounded=1;whiteSpace=wrap;html=1;arcSize=40;fontColor=#000000;fillColor=#FFFFFF;strokeColor=#666666;" parent="1" vertex="1">
          <mxGeometry x="750" y="860" width="120" height="40" as="geometry" />
        </mxCell>
        <mxCell id="fWN6U2PsKUXUR3X5_iIi-18" value="GitHub repository" style="rounded=1;whiteSpace=wrap;html=1;arcSize=40;fontColor=#000000;fillColor=#FFFFFF;strokeColor=#666666;" parent="1" vertex="1">
          <mxGeometry x="890" y="150" width="120" height="40" as="geometry" />
        </mxCell>
        <mxCell id="fWN6U2PsKUXUR3X5_iIi-20" value="GitHub repository" style="rounded=1;whiteSpace=wrap;html=1;arcSize=40;fontColor=#000000;fillColor=#FFFFFF;strokeColor=#666666;" parent="1" vertex="1">
          <mxGeometry x="890" y="860" width="120" height="40" as="geometry" />
        </mxCell>
        <mxCell id="fWN6U2PsKUXUR3X5_iIi-21" value="KEB images build Prow jobs" style="rounded=1;whiteSpace=wrap;html=1;arcSize=40;fontColor=#000000;fillColor=#FFFFFF;strokeColor=#666666;" parent="1" vertex="1">
          <mxGeometry x="1030" y="150" width="120" height="40" as="geometry" />
        </mxCell>
        <mxCell id="fWN6U2PsKUXUR3X5_iIi-22" value="" style="edgeStyle=orthogonalEdgeStyle;html=1;verticalAlign=bottom;endArrow=none;endSize=8;strokeColor=#666666;rounded=1;entryX=0.5;entryY=0;entryDx=0;entryDy=0;endFill=0;dashed=1;" parent="1" source="fWN6U2PsKUXUR3X5_iIi-98" target="fWN6U2PsKUXUR3X5_iIi-23" edge="1">
          <mxGeometry relative="1" as="geometry">
            <mxPoint x="1090" y="250" as="targetPoint" />
            <Array as="points">
              <mxPoint x="1090" y="760" />
              <mxPoint x="1090" y="760" />
            </Array>
          </mxGeometry>
        </mxCell>
        <mxCell id="fWN6U2PsKUXUR3X5_iIi-23" value="KEB images build Prow jobs" style="rounded=1;whiteSpace=wrap;html=1;arcSize=40;fontColor=#000000;fillColor=#FFFFFF;strokeColor=#666666;" parent="1" vertex="1">
          <mxGeometry x="1030" y="860" width="120" height="40" as="geometry" />
        </mxCell>
        <mxCell id="fWN6U2PsKUXUR3X5_iIi-24" value="&lt;div&gt;Await for commit status&lt;br&gt;&lt;/div&gt;" style="rounded=1;whiteSpace=wrap;html=1;arcSize=40;fontColor=#000000;fillColor=#FFFFFF;strokeColor=#666666;" parent="1" vertex="1">
          <mxGeometry x="1170" y="150" width="120" height="40" as="geometry" />
        </mxCell>
        <mxCell id="fWN6U2PsKUXUR3X5_iIi-25" value="" style="edgeStyle=orthogonalEdgeStyle;html=1;verticalAlign=bottom;endArrow=none;endSize=8;strokeColor=#666666;rounded=1;entryX=0.5;entryY=0;entryDx=0;entryDy=0;endFill=0;dashed=1;" parent="1" source="fWN6U2PsKUXUR3X5_iIi-62" target="fWN6U2PsKUXUR3X5_iIi-26" edge="1">
          <mxGeometry relative="1" as="geometry">
            <mxPoint x="1230" y="250" as="targetPoint" />
            <Array as="points">
              <mxPoint x="1230" y="780" />
              <mxPoint x="1230" y="780" />
            </Array>
          </mxGeometry>
        </mxCell>
        <mxCell id="fWN6U2PsKUXUR3X5_iIi-26" value="Await for commit status" style="rounded=1;whiteSpace=wrap;html=1;arcSize=40;fontColor=#000000;fillColor=#FFFFFF;strokeColor=#666666;" parent="1" vertex="1">
          <mxGeometry x="1170" y="860" width="120" height="40" as="geometry" />
        </mxCell>
        <mxCell id="fWN6U2PsKUXUR3X5_iIi-27" value="Docker registry" style="rounded=1;whiteSpace=wrap;html=1;arcSize=40;fontColor=#000000;fillColor=#FFFFFF;strokeColor=#666666;" parent="1" vertex="1">
          <mxGeometry x="1310" y="150" width="120" height="40" as="geometry" />
        </mxCell>
        <mxCell id="fWN6U2PsKUXUR3X5_iIi-29" value="Docker registry" style="rounded=1;whiteSpace=wrap;html=1;arcSize=40;fontColor=#000000;fillColor=#FFFFFF;strokeColor=#666666;" parent="1" vertex="1">
          <mxGeometry x="1310" y="860" width="120" height="40" as="geometry" />
        </mxCell>
        <mxCell id="fWN6U2PsKUXUR3X5_iIi-58" value="" style="edgeStyle=elbowEdgeStyle;rounded=1;orthogonalLoop=1;jettySize=auto;html=1;elbow=vertical;strokeColor=#666666;" parent="1" target="SJzxoX7ZXx-AtOiOC7C7-14" edge="1">
          <mxGeometry relative="1" as="geometry">
            <mxPoint x="255" y="240.07" as="sourcePoint" />
            <mxPoint x="390" y="240" as="targetPoint" />
          </mxGeometry>
        </mxCell>
        <mxCell id="fWN6U2PsKUXUR3X5_iIi-95" value="" style="edgeStyle=elbowEdgeStyle;rounded=1;orthogonalLoop=1;jettySize=auto;html=1;elbow=vertical;strokeColor=#666666;" parent="1" edge="1">
          <mxGeometry relative="1" as="geometry">
            <mxPoint x="255" y="540" as="sourcePoint" />
            <mxPoint x="950" y="540.5" as="targetPoint" />
          </mxGeometry>
        </mxCell>
        <mxCell id="fWN6U2PsKUXUR3X5_iIi-51" value="Create a release" style="text;html=1;strokeColor=none;fillColor=none;align=center;verticalAlign=middle;whiteSpace=wrap;rounded=0;fontSize=15;fontStyle=1" parent="1" vertex="1">
          <mxGeometry x="750" y="100" width="130" height="30" as="geometry" />
        </mxCell>
        <mxCell id="fWN6U2PsKUXUR3X5_iIi-70" value="" style="edgeStyle=elbowEdgeStyle;rounded=1;orthogonalLoop=1;jettySize=auto;html=1;elbow=vertical;strokeColor=#666666;" parent="1" edge="1">
          <mxGeometry relative="1" as="geometry">
            <mxPoint x="1095" y="630.0686792452831" as="sourcePoint" />
            <mxPoint x="1370" y="630" as="targetPoint" />
          </mxGeometry>
        </mxCell>
        <mxCell id="fWN6U2PsKUXUR3X5_iIi-66" value="" style="edgeStyle=elbowEdgeStyle;rounded=1;orthogonalLoop=1;jettySize=auto;html=1;elbow=vertical;verticalAlign=bottom;strokeColor=#666666;entryX=1;entryY=1;entryDx=0;entryDy=0;" parent="1" edge="1" target="fWN6U2PsKUXUR3X5_iIi-68">
          <mxGeometry relative="1" as="geometry">
            <mxPoint x="950" y="570" as="sourcePoint" />
            <Array as="points">
              <mxPoint x="1021.5" y="569.5" />
            </Array>
            <mxPoint x="1230" y="570" as="targetPoint" />
          </mxGeometry>
        </mxCell>
        <mxCell id="fWN6U2PsKUXUR3X5_iIi-68" value="triggers building binary images" style="text;html=1;strokeColor=none;fillColor=none;align=center;verticalAlign=middle;whiteSpace=wrap;rounded=0;" parent="1" vertex="1">
          <mxGeometry x="975" y="540" width="110" height="30" as="geometry" />
        </mxCell>
        <mxCell id="fWN6U2PsKUXUR3X5_iIi-75" value="uploads binary &lt;br&gt;images" style="text;html=1;strokeColor=none;fillColor=none;align=center;verticalAlign=middle;whiteSpace=wrap;rounded=0;" parent="1" vertex="1">
          <mxGeometry x="1267" y="600" width="93" height="30" as="geometry" />
        </mxCell>
        <mxCell id="93VO_P9OMc8iU-WbTYkY-10" value="initiate" style="text;html=1;strokeColor=none;fillColor=none;align=center;verticalAlign=middle;whiteSpace=wrap;rounded=0;" parent="1" vertex="1">
          <mxGeometry x="435" y="219.50000000000003" width="60" height="30" as="geometry" />
        </mxCell>
        <mxCell id="93VO_P9OMc8iU-WbTYkY-12" value="&lt;font color=&quot;#ffffff&quot;&gt;2&lt;/font&gt;" style="ellipse;whiteSpace=wrap;html=1;aspect=fixed;fillColor=#0a6ec7;strokeColor=#0a6ec7;" parent="1" vertex="1">
          <mxGeometry x="415" y="224.50000000000003" width="20" height="20" as="geometry" />
        </mxCell>
        <mxCell id="93VO_P9OMc8iU-WbTYkY-14" value="&lt;font color=&quot;#ffffff&quot;&gt;6&lt;/font&gt;" style="ellipse;whiteSpace=wrap;html=1;aspect=fixed;fillColor=#0a6ec7;strokeColor=#0a6ec7;" parent="1" vertex="1">
          <mxGeometry x="955" y="544.5" width="20" height="20" as="geometry" />
        </mxCell>
        <mxCell id="93VO_P9OMc8iU-WbTYkY-15" value="&lt;font color=&quot;#ffffff&quot;&gt;7&lt;/font&gt;" style="ellipse;whiteSpace=wrap;html=1;aspect=fixed;fillColor=#0a6ec7;strokeColor=#0a6ec7;" parent="1" vertex="1">
          <mxGeometry x="1241" y="605" width="20" height="20" as="geometry" />
        </mxCell>
        <mxCell id="JRshGmQCwWdGFa1VaoXA-4" value="validate release job" style="rounded=1;whiteSpace=wrap;html=1;arcSize=40;fontColor=#000000;fillColor=#FFFFFF;strokeColor=#666666;" parent="1" vertex="1">
          <mxGeometry x="330" y="150" width="120" height="40" as="geometry" />
        </mxCell>
        <mxCell id="JRshGmQCwWdGFa1VaoXA-5" value="unit tests job" style="rounded=1;whiteSpace=wrap;html=1;arcSize=40;fontColor=#000000;fillColor=#FFFFFF;strokeColor=#666666;" parent="1" vertex="1">
          <mxGeometry x="470" y="150" width="120" height="40" as="geometry" />
        </mxCell>
        <mxCell id="JRshGmQCwWdGFa1VaoXA-6" value="&lt;div&gt;KEB chart tests&lt;br&gt;&lt;/div&gt;" style="rounded=1;whiteSpace=wrap;html=1;arcSize=40;fontColor=#000000;fillColor=#FFFFFF;strokeColor=#666666;" parent="1" vertex="1">
          <mxGeometry x="610" y="150" width="120" height="40" as="geometry" />
        </mxCell>
        <mxCell id="JRshGmQCwWdGFa1VaoXA-9" value="" style="edgeStyle=orthogonalEdgeStyle;html=1;verticalAlign=bottom;endArrow=none;endSize=8;strokeColor=#666666;rounded=1;endFill=0;dashed=1;entryX=0.5;entryY=0;entryDx=0;entryDy=0;" parent="1" source="SJzxoX7ZXx-AtOiOC7C7-14" target="JRshGmQCwWdGFa1VaoXA-69" edge="1">
          <mxGeometry relative="1" as="geometry">
            <mxPoint x="390" y="1040" as="targetPoint" />
            <mxPoint x="389.58" y="190" as="sourcePoint" />
            <Array as="points">
              <mxPoint x="390" y="370" />
              <mxPoint x="390" y="370" />
            </Array>
          </mxGeometry>
        </mxCell>
        <mxCell id="JRshGmQCwWdGFa1VaoXA-11" value="" style="edgeStyle=orthogonalEdgeStyle;html=1;verticalAlign=bottom;endArrow=none;endSize=8;strokeColor=#666666;rounded=1;entryX=0.5;entryY=0;entryDx=0;entryDy=0;endFill=0;dashed=1;" parent="1" source="fWN6U2PsKUXUR3X5_iIi-9" target="fWN6U2PsKUXUR3X5_iIi-13" edge="1">
          <mxGeometry relative="1" as="geometry">
            <mxPoint x="250" y="550" as="targetPoint" />
            <mxPoint x="250" y="190" as="sourcePoint" />
          </mxGeometry>
        </mxCell>
        <mxCell id="fWN6U2PsKUXUR3X5_iIi-36" value="" style="html=1;points=[];perimeter=orthogonalPerimeter;outlineConnect=0;targetShapes=umlLifeline;portConstraint=eastwest;newEdgeStyle={&quot;edgeStyle&quot;:&quot;elbowEdgeStyle&quot;,&quot;elbow&quot;:&quot;vertical&quot;,&quot;curved&quot;:0,&quot;rounded&quot;:0};perimeterSpacing=0;" parent="1" vertex="1">
          <mxGeometry x="245" y="238.5" width="10" height="571.5" as="geometry" />
        </mxCell>
        <mxCell id="JRshGmQCwWdGFa1VaoXA-13" value="initiate" style="text;html=1;strokeColor=none;fillColor=none;align=center;verticalAlign=middle;whiteSpace=wrap;rounded=0;" parent="1" vertex="1">
          <mxGeometry x="290" y="210" width="60" height="30" as="geometry" />
        </mxCell>
        <mxCell id="JRshGmQCwWdGFa1VaoXA-14" value="&lt;font color=&quot;#ffffff&quot;&gt;2&lt;/font&gt;" style="ellipse;whiteSpace=wrap;html=1;aspect=fixed;fillColor=#0a6ec7;strokeColor=#0a6ec7;" parent="1" vertex="1">
          <mxGeometry x="270" y="213.5" width="20" height="20" as="geometry" />
        </mxCell>
        <mxCell id="JRshGmQCwWdGFa1VaoXA-15" value="" style="html=1;verticalAlign=bottom;endArrow=open;endSize=8;edgeStyle=elbowEdgeStyle;elbow=vertical;rounded=1;dashed=1;strokeColor=#666666;" parent="1" edge="1">
          <mxGeometry relative="1" as="geometry">
            <mxPoint x="255" y="299" as="targetPoint" />
            <Array as="points">
              <mxPoint x="308" y="299" />
            </Array>
            <mxPoint x="385" y="299" as="sourcePoint" />
          </mxGeometry>
        </mxCell>
        <mxCell id="JRshGmQCwWdGFa1VaoXA-16" value="returns result" style="text;html=1;strokeColor=none;fillColor=none;align=center;verticalAlign=middle;whiteSpace=wrap;rounded=0;" parent="1" vertex="1">
          <mxGeometry x="280" y="270" width="80" height="30" as="geometry" />
        </mxCell>
        <mxCell id="JRshGmQCwWdGFa1VaoXA-17" value="" style="edgeStyle=orthogonalEdgeStyle;html=1;verticalAlign=bottom;endArrow=none;endSize=8;strokeColor=#666666;rounded=1;endFill=0;dashed=1;entryX=0.5;entryY=0;entryDx=0;entryDy=0;" parent="1" target="JRshGmQCwWdGFa1VaoXA-68" edge="1">
          <mxGeometry relative="1" as="geometry">
            <mxPoint x="530" y="1040" as="targetPoint" />
            <mxPoint x="530.0526315789475" y="280" as="sourcePoint" />
            <Array as="points">
              <mxPoint x="530" y="620" />
              <mxPoint x="530" y="620" />
            </Array>
          </mxGeometry>
        </mxCell>
        <mxCell id="JRshGmQCwWdGFa1VaoXA-26" value="returns PR to approve" style="text;html=1;strokeColor=none;fillColor=none;align=center;verticalAlign=middle;whiteSpace=wrap;rounded=0;" parent="1" vertex="1">
          <mxGeometry x="675" y="350" width="120" height="30" as="geometry" />
        </mxCell>
        <mxCell id="JRshGmQCwWdGFa1VaoXA-28" value="" style="edgeStyle=orthogonalEdgeStyle;rounded=1;orthogonalLoop=1;jettySize=auto;html=1;strokeColor=#666666;exitX=1.023;exitY=0.913;exitDx=0;exitDy=0;exitPerimeter=0;" parent="1" edge="1">
          <mxGeometry relative="1" as="geometry">
            <Array as="points">
              <mxPoint x="510" y="422" />
              <mxPoint x="510" y="422" />
            </Array>
            <mxPoint x="116.38000000000011" y="422.2700000000001" as="sourcePoint" />
            <mxPoint x="805" y="422.28" as="targetPoint" />
          </mxGeometry>
        </mxCell>
        <mxCell id="JRshGmQCwWdGFa1VaoXA-32" value="initiates" style="text;html=1;strokeColor=none;fillColor=none;align=center;verticalAlign=middle;whiteSpace=wrap;rounded=0;" parent="1" vertex="1">
          <mxGeometry x="150" y="298.42" width="60" height="30" as="geometry" />
        </mxCell>
        <mxCell id="JRshGmQCwWdGFa1VaoXA-33" value="&lt;font color=&quot;#ffffff&quot;&gt;1&lt;/font&gt;" style="ellipse;whiteSpace=wrap;html=1;aspect=fixed;fillColor=#0a6ec7;strokeColor=#0a6ec7;" parent="1" vertex="1">
          <mxGeometry x="130" y="301.92" width="20" height="20" as="geometry" />
        </mxCell>
        <mxCell id="JRshGmQCwWdGFa1VaoXA-34" value="approves PR" style="text;html=1;strokeColor=none;fillColor=none;align=center;verticalAlign=middle;whiteSpace=wrap;rounded=0;" parent="1" vertex="1">
          <mxGeometry x="150" y="390" width="80" height="30" as="geometry" />
        </mxCell>
        <mxCell id="JRshGmQCwWdGFa1VaoXA-35" value="&lt;font color=&quot;#ffffff&quot;&gt;4&lt;/font&gt;" style="ellipse;whiteSpace=wrap;html=1;aspect=fixed;fillColor=#0a6ec7;strokeColor=#0a6ec7;" parent="1" vertex="1">
          <mxGeometry x="130" y="393.5" width="20" height="20" as="geometry" />
        </mxCell>
        <mxCell id="JRshGmQCwWdGFa1VaoXA-37" value="create tag and draft release" style="text;html=1;strokeColor=none;fillColor=none;align=center;verticalAlign=middle;whiteSpace=wrap;rounded=0;" parent="1" vertex="1">
          <mxGeometry x="760" y="510" width="170" height="30" as="geometry" />
        </mxCell>
        <mxCell id="JRshGmQCwWdGFa1VaoXA-38" value="&lt;font color=&quot;#ffffff&quot;&gt;5&lt;/font&gt;" style="ellipse;whiteSpace=wrap;html=1;aspect=fixed;fillColor=#0a6ec7;strokeColor=#0a6ec7;" parent="1" vertex="1">
          <mxGeometry x="740" y="515" width="20" height="20" as="geometry" />
        </mxCell>
        <mxCell id="JRshGmQCwWdGFa1VaoXA-40" value="" style="edgeStyle=orthogonalEdgeStyle;html=1;verticalAlign=bottom;endArrow=none;endSize=8;strokeColor=#666666;rounded=1;endFill=0;dashed=1;entryX=0.5;entryY=0;entryDx=0;entryDy=0;exitX=0.5;exitY=1;exitDx=0;exitDy=0;" parent="1" source="JRshGmQCwWdGFa1VaoXA-6" target="JRshGmQCwWdGFa1VaoXA-67" edge="1">
          <mxGeometry relative="1" as="geometry">
            <mxPoint x="670" y="1040" as="targetPoint" />
            <mxPoint x="670.0000000000005" y="540" as="sourcePoint" />
            <Array as="points" />
          </mxGeometry>
        </mxCell>
        <mxCell id="JRshGmQCwWdGFa1VaoXA-58" value="" style="edgeStyle=orthogonalEdgeStyle;html=1;verticalAlign=bottom;endArrow=none;endSize=8;strokeColor=#666666;rounded=1;entryX=0.5;entryY=0;entryDx=0;entryDy=0;endFill=0;dashed=1;" parent="1" source="fWN6U2PsKUXUR3X5_iIi-18" target="fWN6U2PsKUXUR3X5_iIi-20" edge="1">
          <mxGeometry relative="1" as="geometry">
            <mxPoint x="950" y="1050" as="targetPoint" />
            <mxPoint x="950" y="190" as="sourcePoint" />
          </mxGeometry>
        </mxCell>
        <mxCell id="JRshGmQCwWdGFa1VaoXA-59" value="" style="edgeStyle=elbowEdgeStyle;rounded=1;orthogonalLoop=1;jettySize=auto;html=1;elbow=vertical;strokeColor=#666666;" parent="1" target="fWN6U2PsKUXUR3X5_iIi-62" edge="1" source="fWN6U2PsKUXUR3X5_iIi-36">
          <mxGeometry relative="1" as="geometry">
            <mxPoint x="395" y="589.5" as="sourcePoint" />
            <mxPoint x="1070" y="589.5" as="targetPoint" />
            <Array as="points">
              <mxPoint x="490" y="589.5" />
            </Array>
          </mxGeometry>
        </mxCell>
        <mxCell id="JRshGmQCwWdGFa1VaoXA-60" value="initiate" style="text;html=1;strokeColor=none;fillColor=none;align=center;verticalAlign=middle;whiteSpace=wrap;rounded=0;" parent="1" vertex="1">
          <mxGeometry x="1140" y="559.5" width="60" height="30" as="geometry" />
        </mxCell>
        <mxCell id="JRshGmQCwWdGFa1VaoXA-61" value="&lt;font color=&quot;#ffffff&quot;&gt;6&lt;/font&gt;" style="ellipse;whiteSpace=wrap;html=1;aspect=fixed;fillColor=#0a6ec7;strokeColor=#0a6ec7;" parent="1" vertex="1">
          <mxGeometry x="1120" y="562.5" width="20" height="20" as="geometry" />
        </mxCell>
        <mxCell id="JRshGmQCwWdGFa1VaoXA-62" value="" style="html=1;verticalAlign=bottom;endArrow=open;endSize=8;edgeStyle=elbowEdgeStyle;elbow=vertical;rounded=1;dashed=1;strokeColor=#666666;" parent="1" edge="1">
          <mxGeometry relative="1" as="geometry">
            <mxPoint x="255" y="709.31" as="targetPoint" />
            <mxPoint x="1225" y="709.31" as="sourcePoint" />
            <Array as="points">
              <mxPoint x="685" y="709.31" />
              <mxPoint x="780.5" y="709.24" />
            </Array>
          </mxGeometry>
        </mxCell>
        <mxCell id="JRshGmQCwWdGFa1VaoXA-63" value="returns result" style="text;html=1;strokeColor=none;fillColor=none;align=center;verticalAlign=middle;whiteSpace=wrap;rounded=0;" parent="1" vertex="1">
          <mxGeometry x="1120" y="679.81" width="80" height="30" as="geometry" />
        </mxCell>
        <mxCell id="JRshGmQCwWdGFa1VaoXA-64" value="" style="edgeStyle=elbowEdgeStyle;rounded=1;orthogonalLoop=1;jettySize=auto;html=1;elbow=vertical;strokeColor=#666666;" parent="1" edge="1" source="fWN6U2PsKUXUR3X5_iIi-36">
          <mxGeometry relative="1" as="geometry">
            <mxPoint x="252.5" y="810" as="sourcePoint" />
            <mxPoint x="950" y="810" as="targetPoint" />
            <Array as="points">
              <mxPoint x="357.5" y="810" />
            </Array>
          </mxGeometry>
        </mxCell>
        <mxCell id="JRshGmQCwWdGFa1VaoXA-65" value="publish release" style="text;html=1;strokeColor=none;fillColor=none;align=center;verticalAlign=middle;whiteSpace=wrap;rounded=0;" parent="1" vertex="1">
          <mxGeometry x="830" y="780" width="110" height="30" as="geometry" />
        </mxCell>
        <mxCell id="JRshGmQCwWdGFa1VaoXA-66" value="&lt;font color=&quot;#ffffff&quot;&gt;9&lt;/font&gt;" style="ellipse;whiteSpace=wrap;html=1;aspect=fixed;fillColor=#0a6ec7;strokeColor=#0a6ec7;" parent="1" vertex="1">
          <mxGeometry x="815" y="785" width="20" height="20" as="geometry" />
        </mxCell>
        <mxCell id="JRshGmQCwWdGFa1VaoXA-67" value="KEB chart tests" style="rounded=1;whiteSpace=wrap;html=1;arcSize=40;fontColor=#000000;fillColor=#FFFFFF;strokeColor=#666666;" parent="1" vertex="1">
          <mxGeometry x="610" y="860" width="120" height="40" as="geometry" />
        </mxCell>
        <mxCell id="JRshGmQCwWdGFa1VaoXA-68" value="unit tests job" style="rounded=1;whiteSpace=wrap;html=1;arcSize=40;fontColor=#000000;fillColor=#FFFFFF;strokeColor=#666666;" parent="1" vertex="1">
          <mxGeometry x="470" y="860" width="120" height="40" as="geometry" />
        </mxCell>
        <mxCell id="JRshGmQCwWdGFa1VaoXA-69" value="validate release job" style="rounded=1;whiteSpace=wrap;html=1;arcSize=40;fontColor=#000000;fillColor=#FFFFFF;strokeColor=#666666;" parent="1" vertex="1">
          <mxGeometry x="330" y="860" width="120" height="40" as="geometry" />
        </mxCell>
        <mxCell id="avyv1Q79ZDhZj9o4qoH5-4" value="" style="edgeStyle=elbowEdgeStyle;rounded=1;orthogonalLoop=1;jettySize=auto;html=1;elbow=vertical;strokeColor=#666666;" parent="1" target="SJzxoX7ZXx-AtOiOC7C7-4" edge="1">
          <mxGeometry relative="1" as="geometry">
            <mxPoint x="255" y="262.11782608695654" as="sourcePoint" />
            <mxPoint x="660" y="262" as="targetPoint" />
          </mxGeometry>
        </mxCell>
        <mxCell id="avyv1Q79ZDhZj9o4qoH5-5" value="initiate" style="text;html=1;strokeColor=none;fillColor=none;align=center;verticalAlign=middle;whiteSpace=wrap;rounded=0;" parent="1" vertex="1">
          <mxGeometry x="580" y="231.34000000000003" width="60" height="30" as="geometry" />
        </mxCell>
        <mxCell id="avyv1Q79ZDhZj9o4qoH5-6" value="&lt;font color=&quot;#ffffff&quot;&gt;2&lt;/font&gt;" style="ellipse;whiteSpace=wrap;html=1;aspect=fixed;fillColor=#0a6ec7;strokeColor=#0a6ec7;" parent="1" vertex="1">
          <mxGeometry x="560" y="236.34000000000003" width="20" height="20" as="geometry" />
        </mxCell>
        <mxCell id="avyv1Q79ZDhZj9o4qoH5-9" value="" style="edgeStyle=orthogonalEdgeStyle;html=1;verticalAlign=bottom;endArrow=none;endSize=8;strokeColor=#666666;rounded=1;endFill=0;dashed=1;entryX=0.5;entryY=0;entryDx=0;entryDy=0;" parent="1" source="fWN6U2PsKUXUR3X5_iIi-15" edge="1">
          <mxGeometry relative="1" as="geometry">
            <mxPoint x="810" y="337.5" as="targetPoint" />
            <mxPoint x="810" y="190" as="sourcePoint" />
          </mxGeometry>
        </mxCell>
        <mxCell id="avyv1Q79ZDhZj9o4qoH5-14" value="" style="edgeStyle=elbowEdgeStyle;rounded=1;orthogonalLoop=1;jettySize=auto;html=1;elbow=vertical;strokeColor=#666666;" parent="1" edge="1">
          <mxGeometry relative="1" as="geometry">
            <mxPoint x="255" y="337.14" as="sourcePoint" />
            <mxPoint x="805" y="337.2464788732394" as="targetPoint" />
          </mxGeometry>
        </mxCell>
        <mxCell id="avyv1Q79ZDhZj9o4qoH5-15" value="initiate" style="text;html=1;strokeColor=none;fillColor=none;align=center;verticalAlign=middle;whiteSpace=wrap;rounded=0;" parent="1" vertex="1">
          <mxGeometry x="720" y="306.5" width="60" height="30" as="geometry" />
        </mxCell>
        <mxCell id="avyv1Q79ZDhZj9o4qoH5-16" value="&lt;font color=&quot;#ffffff&quot;&gt;3&lt;/font&gt;" style="ellipse;whiteSpace=wrap;html=1;aspect=fixed;fillColor=#0a6ec7;strokeColor=#0a6ec7;" parent="1" vertex="1">
          <mxGeometry x="700" y="309.5" width="20" height="20" as="geometry" />
        </mxCell>
        <mxCell id="avyv1Q79ZDhZj9o4qoH5-17" value="" style="edgeStyle=orthogonalEdgeStyle;html=1;verticalAlign=bottom;endArrow=none;endSize=8;strokeColor=#666666;rounded=1;endFill=0;dashed=1;" parent="1" source="SJzxoX7ZXx-AtOiOC7C7-2" edge="1">
          <mxGeometry relative="1" as="geometry">
            <mxPoint x="530" y="280" as="targetPoint" />
            <mxPoint x="530" y="190" as="sourcePoint" />
            <Array as="points">
              <mxPoint x="530" y="320" />
              <mxPoint x="531" y="320" />
              <mxPoint x="531" y="280" />
            </Array>
          </mxGeometry>
        </mxCell>
        <mxCell id="avyv1Q79ZDhZj9o4qoH5-18" value="" style="html=1;verticalAlign=bottom;endArrow=open;endSize=8;edgeStyle=elbowEdgeStyle;elbow=vertical;rounded=1;dashed=1;strokeColor=#666666;" parent="1" target="fWN6U2PsKUXUR3X5_iIi-36" edge="1">
          <mxGeometry relative="1" as="geometry">
            <mxPoint x="495" y="478.95" as="targetPoint" />
            <mxPoint x="805" y="478.95000000000005" as="sourcePoint" />
            <Array as="points">
              <mxPoint x="582.5" y="478.95" />
              <mxPoint x="685.5" y="478.95" />
            </Array>
          </mxGeometry>
        </mxCell>
        <mxCell id="avyv1Q79ZDhZj9o4qoH5-19" value="returns result" style="text;html=1;strokeColor=none;fillColor=none;align=center;verticalAlign=middle;whiteSpace=wrap;rounded=0;" parent="1" vertex="1">
          <mxGeometry x="710" y="450" width="80" height="30" as="geometry" />
        </mxCell>
        <mxCell id="avyv1Q79ZDhZj9o4qoH5-22" value="" style="edgeStyle=orthogonalEdgeStyle;html=1;verticalAlign=bottom;endArrow=none;endSize=8;strokeColor=#666666;rounded=1;entryX=0.5;entryY=0;entryDx=0;entryDy=0;endFill=0;dashed=1;" parent="1" source="fWN6U2PsKUXUR3X5_iIi-24" target="fWN6U2PsKUXUR3X5_iIi-62" edge="1">
          <mxGeometry relative="1" as="geometry">
            <mxPoint x="1230" y="1020" as="targetPoint" />
            <mxPoint x="1230" y="190" as="sourcePoint" />
          </mxGeometry>
        </mxCell>
        <mxCell id="fWN6U2PsKUXUR3X5_iIi-62" value="" style="html=1;points=[];perimeter=orthogonalPerimeter;outlineConnect=0;targetShapes=umlLifeline;portConstraint=eastwest;newEdgeStyle={&quot;edgeStyle&quot;:&quot;elbowEdgeStyle&quot;,&quot;elbow&quot;:&quot;vertical&quot;,&quot;curved&quot;:0,&quot;rounded&quot;:0};" parent="1" vertex="1">
          <mxGeometry x="1225" y="589.5" width="10" height="120.5" as="geometry" />
        </mxCell>
        <mxCell id="avyv1Q79ZDhZj9o4qoH5-24" value="" style="html=1;verticalAlign=bottom;endArrow=open;endSize=8;edgeStyle=elbowEdgeStyle;elbow=vertical;rounded=1;dashed=1;strokeColor=#666666;" parent="1" target="fWN6U2PsKUXUR3X5_iIi-62" edge="1">
          <mxGeometry relative="1" as="geometry">
            <mxPoint x="1100" y="670" as="targetPoint" />
            <mxPoint x="1210" y="670" as="sourcePoint" />
            <Array as="points">
              <mxPoint x="1090" y="670" />
              <mxPoint x="930.5" y="669.4300000000001" />
            </Array>
          </mxGeometry>
        </mxCell>
        <mxCell id="avyv1Q79ZDhZj9o4qoH5-25" value="returns result" style="text;html=1;strokeColor=none;fillColor=none;align=center;verticalAlign=middle;whiteSpace=wrap;rounded=0;" parent="1" vertex="1">
          <mxGeometry x="1120" y="640.5" width="80" height="30" as="geometry" />
        </mxCell>
        <mxCell id="8_9x-hrWoqbXgDRiDYQP-15" value="" style="edgeStyle=elbowEdgeStyle;rounded=1;orthogonalLoop=1;jettySize=auto;html=1;elbow=vertical;strokeColor=#666666;" parent="1" edge="1" source="fWN6U2PsKUXUR3X5_iIi-36">
          <mxGeometry relative="1" as="geometry">
            <mxPoint x="252.5" y="760" as="sourcePoint" />
            <mxPoint x="950" y="760" as="targetPoint" />
            <Array as="points">
              <mxPoint x="357.5" y="760" />
            </Array>
          </mxGeometry>
        </mxCell>
        <mxCell id="8_9x-hrWoqbXgDRiDYQP-16" value="update gh-pages" style="text;html=1;strokeColor=none;fillColor=none;align=center;verticalAlign=middle;whiteSpace=wrap;rounded=0;" parent="1" vertex="1">
          <mxGeometry x="830" y="730" width="115" height="30" as="geometry" />
        </mxCell>
        <mxCell id="8_9x-hrWoqbXgDRiDYQP-17" value="&lt;font color=&quot;#ffffff&quot;&gt;8&lt;/font&gt;" style="ellipse;whiteSpace=wrap;html=1;aspect=fixed;fillColor=#0a6ec7;strokeColor=#0a6ec7;" parent="1" vertex="1">
          <mxGeometry x="815" y="735" width="20" height="20" as="geometry" />
        </mxCell>
        <mxCell id="8_9x-hrWoqbXgDRiDYQP-23" value="" style="edgeStyle=elbowEdgeStyle;rounded=1;orthogonalLoop=1;jettySize=auto;html=1;elbow=vertical;strokeColor=#666666;" parent="1" edge="1">
          <mxGeometry relative="1" as="geometry">
            <mxPoint x="115" y="329.18" as="sourcePoint" />
            <mxPoint x="245" y="329.11" as="targetPoint" />
          </mxGeometry>
        </mxCell>
        <mxCell id="SJzxoX7ZXx-AtOiOC7C7-3" value="" style="edgeStyle=orthogonalEdgeStyle;html=1;verticalAlign=bottom;endArrow=none;endSize=8;strokeColor=#666666;rounded=1;endFill=0;dashed=1;" edge="1" parent="1" source="JRshGmQCwWdGFa1VaoXA-5" target="SJzxoX7ZXx-AtOiOC7C7-2">
          <mxGeometry relative="1" as="geometry">
            <mxPoint x="530" y="280" as="targetPoint" />
            <mxPoint x="530" y="190" as="sourcePoint" />
            <Array as="points">
              <mxPoint x="530" y="240" />
              <mxPoint x="530" y="240" />
            </Array>
          </mxGeometry>
        </mxCell>
        <mxCell id="SJzxoX7ZXx-AtOiOC7C7-2" value="" style="html=1;points=[];perimeter=orthogonalPerimeter;outlineConnect=0;targetShapes=umlLifeline;portConstraint=eastwest;newEdgeStyle={&quot;edgeStyle&quot;:&quot;elbowEdgeStyle&quot;,&quot;elbow&quot;:&quot;vertical&quot;,&quot;curved&quot;:0,&quot;rounded&quot;:0};" vertex="1" parent="1">
          <mxGeometry x="525" y="249.5" width="10" height="60" as="geometry" />
        </mxCell>
        <mxCell id="SJzxoX7ZXx-AtOiOC7C7-4" value="" style="html=1;points=[];perimeter=orthogonalPerimeter;outlineConnect=0;targetShapes=umlLifeline;portConstraint=eastwest;newEdgeStyle={&quot;edgeStyle&quot;:&quot;elbowEdgeStyle&quot;,&quot;elbow&quot;:&quot;vertical&quot;,&quot;curved&quot;:0,&quot;rounded&quot;:0};" vertex="1" parent="1">
          <mxGeometry x="665" y="261.97" width="10" height="60" as="geometry" />
        </mxCell>
        <mxCell id="SJzxoX7ZXx-AtOiOC7C7-7" value="" style="edgeStyle=elbowEdgeStyle;rounded=1;orthogonalLoop=1;jettySize=auto;html=1;elbow=vertical;strokeColor=#666666;" edge="1" parent="1" source="fWN6U2PsKUXUR3X5_iIi-36">
          <mxGeometry relative="1" as="geometry">
            <mxPoint x="260" y="250" as="sourcePoint" />
            <mxPoint x="525" y="249.56" as="targetPoint" />
          </mxGeometry>
        </mxCell>
        <mxCell id="SJzxoX7ZXx-AtOiOC7C7-8" value="" style="html=1;verticalAlign=bottom;endArrow=open;endSize=8;edgeStyle=elbowEdgeStyle;elbow=vertical;rounded=1;dashed=1;strokeColor=#666666;" edge="1" parent="1" target="fWN6U2PsKUXUR3X5_iIi-36">
          <mxGeometry relative="1" as="geometry">
            <mxPoint x="395" y="309.5" as="targetPoint" />
            <Array as="points">
              <mxPoint x="448" y="309.5" />
            </Array>
            <mxPoint x="525" y="309.5" as="sourcePoint" />
          </mxGeometry>
        </mxCell>
        <mxCell id="SJzxoX7ZXx-AtOiOC7C7-9" value="" style="html=1;verticalAlign=bottom;endArrow=open;endSize=8;edgeStyle=elbowEdgeStyle;elbow=vertical;rounded=1;dashed=1;strokeColor=#666666;" edge="1" parent="1" target="fWN6U2PsKUXUR3X5_iIi-36">
          <mxGeometry relative="1" as="geometry">
            <mxPoint x="395" y="321.72" as="targetPoint" />
            <Array as="points">
              <mxPoint x="588" y="321.22" />
            </Array>
            <mxPoint x="665" y="321.22" as="sourcePoint" />
          </mxGeometry>
        </mxCell>
        <mxCell id="SJzxoX7ZXx-AtOiOC7C7-10" value="returns result" style="text;html=1;strokeColor=none;fillColor=none;align=center;verticalAlign=middle;whiteSpace=wrap;rounded=0;" vertex="1" parent="1">
          <mxGeometry x="414" y="279.5" width="80" height="30" as="geometry" />
        </mxCell>
        <mxCell id="SJzxoX7ZXx-AtOiOC7C7-11" value="returns result" style="text;html=1;strokeColor=none;fillColor=none;align=center;verticalAlign=middle;whiteSpace=wrap;rounded=0;" vertex="1" parent="1">
          <mxGeometry x="560" y="290" width="80" height="30" as="geometry" />
        </mxCell>
        <mxCell id="SJzxoX7ZXx-AtOiOC7C7-18" value="" style="edgeStyle=orthogonalEdgeStyle;html=1;verticalAlign=bottom;endArrow=none;endSize=8;strokeColor=#666666;rounded=1;endFill=0;dashed=1;entryX=0.5;entryY=0;entryDx=0;entryDy=0;" edge="1" parent="1" source="JRshGmQCwWdGFa1VaoXA-4" target="SJzxoX7ZXx-AtOiOC7C7-14">
          <mxGeometry relative="1" as="geometry">
            <mxPoint x="390" y="1120" as="targetPoint" />
            <mxPoint x="390" y="190" as="sourcePoint" />
            <Array as="points" />
          </mxGeometry>
        </mxCell>
        <mxCell id="SJzxoX7ZXx-AtOiOC7C7-14" value="" style="html=1;points=[];perimeter=orthogonalPerimeter;outlineConnect=0;targetShapes=umlLifeline;portConstraint=eastwest;newEdgeStyle={&quot;edgeStyle&quot;:&quot;elbowEdgeStyle&quot;,&quot;elbow&quot;:&quot;vertical&quot;,&quot;curved&quot;:0,&quot;rounded&quot;:0};" vertex="1" parent="1">
          <mxGeometry x="385" y="240.00000000000003" width="10" height="60" as="geometry" />
        </mxCell>
        <mxCell id="SJzxoX7ZXx-AtOiOC7C7-19" value="" style="html=1;points=[];perimeter=orthogonalPerimeter;outlineConnect=0;targetShapes=umlLifeline;portConstraint=eastwest;newEdgeStyle={&quot;edgeStyle&quot;:&quot;elbowEdgeStyle&quot;,&quot;elbow&quot;:&quot;vertical&quot;,&quot;curved&quot;:0,&quot;rounded&quot;:0};" vertex="1" parent="1">
          <mxGeometry x="805" y="336.5" width="10" height="143.5" as="geometry" />
        </mxCell>
        <mxCell id="SJzxoX7ZXx-AtOiOC7C7-20" value="" style="html=1;verticalAlign=bottom;endArrow=open;endSize=8;edgeStyle=elbowEdgeStyle;elbow=vertical;rounded=1;dashed=1;strokeColor=#666666;" edge="1" parent="1">
          <mxGeometry relative="1" as="geometry">
            <mxPoint x="115" y="379" as="targetPoint" />
            <Array as="points">
              <mxPoint x="448" y="379.22" />
            </Array>
            <mxPoint x="805" y="379.22" as="sourcePoint" />
          </mxGeometry>
        </mxCell>
        <mxCell id="SJzxoX7ZXx-AtOiOC7C7-22" value="" style="edgeStyle=orthogonalEdgeStyle;html=1;verticalAlign=bottom;endArrow=none;endSize=8;strokeColor=#666666;rounded=1;entryX=0.5;entryY=0;entryDx=0;entryDy=0;endFill=0;dashed=1;" edge="1" parent="1" source="fWN6U2PsKUXUR3X5_iIi-21" target="fWN6U2PsKUXUR3X5_iIi-98">
          <mxGeometry relative="1" as="geometry">
            <mxPoint x="1090" y="1120" as="targetPoint" />
            <mxPoint x="1090" y="190" as="sourcePoint" />
          </mxGeometry>
        </mxCell>
        <mxCell id="fWN6U2PsKUXUR3X5_iIi-98" value="" style="html=1;points=[];perimeter=orthogonalPerimeter;outlineConnect=0;targetShapes=umlLifeline;portConstraint=eastwest;newEdgeStyle={&quot;edgeStyle&quot;:&quot;elbowEdgeStyle&quot;,&quot;elbow&quot;:&quot;vertical&quot;,&quot;curved&quot;:0,&quot;rounded&quot;:0};" parent="1" vertex="1">
          <mxGeometry x="1085" y="570" width="10" height="100.5" as="geometry" />
        </mxCell>
      </root>
    </mxGraphModel>
  </diagram>
</mxfile>
